<svg width="1998" height="1998" viewBox="0 0 1998 1998" fill="none" xmlns="http://www.w3.org/2000/svg">
<path opacity="0.5" fill-rule="evenodd" clip-rule="evenodd" d="M0 998.89C0 447.281 447.281 0 998.89 0C1550.5 0 1997.78 447.281 1997.78 998.89C1997.78 1550.5 1550.5 1997.78 998.89 1997.78C447.281 1997.78 0 1550.5 0 998.89ZM1386.9 80.5771C1263.93 28.6349 1133.41 2.21976 998.89 2.21976C864.373 2.21976 733.851 28.6349 610.877 80.5771C492.342 130.744 385.572 202.664 294.118 294.118C202.664 385.572 130.744 492.12 80.5771 610.877C28.6349 733.851 2.21976 864.373 2.21976 998.89C2.21976 1133.41 28.6349 1263.93 80.5771 1386.9C130.744 1505.44 202.664 1612.21 294.118 1703.66C385.572 1795.12 492.12 1867.04 610.877 1917.2C733.851 1969.15 864.373 1995.56 998.89 1995.56C1133.41 1995.56 1263.93 1969.15 1386.9 1917.2C1505.44 1867.04 1612.21 1795.12 1703.66 1703.66C1795.12 1612.21 1867.04 1505.66 1917.2 1386.9C1969.15 1263.93 1995.56 1133.41 1995.56 998.89C1995.56 864.373 1969.15 733.851 1917.2 610.877C1867.04 492.342 1795.12 385.572 1703.66 294.118C1612.21 202.664 1505.66 130.744 1386.9 80.5771Z" fill="#E3EAF0"/>
<path opacity="0.3" fill-rule="evenodd" clip-rule="evenodd" d="M249.723 998.89C249.723 585.128 585.128 249.723 998.89 249.723C1412.65 249.723 1748.06 585.128 1748.06 998.89C1748.06 1412.65 1412.65 1748.06 998.89 1748.06C585.128 1748.06 249.723 1412.65 249.723 998.89ZM1289.68 310.544C1197.56 271.698 1099.67 251.942 998.89 251.942C898.113 251.942 800.222 271.698 708.102 310.544C619.09 348.058 539.179 401.998 470.588 470.588C401.998 539.179 348.058 619.09 310.544 708.102C271.698 800.222 251.942 898.113 251.942 998.89C251.942 1099.67 271.698 1197.56 310.544 1289.68C348.058 1378.69 401.998 1458.6 470.588 1527.19C539.179 1595.78 619.09 1649.72 708.102 1687.24C800.222 1726.08 898.113 1745.84 998.89 1745.84C1099.67 1745.84 1197.56 1726.08 1289.68 1687.24C1378.69 1649.72 1458.6 1595.78 1527.19 1527.19C1595.78 1458.6 1649.72 1378.69 1687.24 1289.68C1726.08 1197.56 1745.84 1099.67 1745.84 998.89C1745.84 898.113 1726.08 800.222 1687.24 708.102C1649.72 619.09 1595.78 539.179 1527.19 470.588C1458.6 401.998 1378.69 348.058 1289.68 310.544Z" fill="#E3EAF0"/>
<path opacity="0.1" fill-rule="evenodd" clip-rule="evenodd" d="M543.84 998.89C543.84 747.614 747.614 543.84 998.89 543.84C1250.17 543.84 1453.94 747.614 1453.94 998.89C1453.94 1250.17 1250.17 1453.94 998.89 1453.94C747.614 1453.94 543.84 1250.17 543.84 998.89ZM1175.14 581.576C1119.42 558.047 1059.93 546.06 998.89 546.06C937.847 546.06 878.358 558.047 822.642 581.576C768.924 604.439 720.311 637.07 678.801 678.579C637.292 720.089 604.662 768.479 581.798 822.419C558.269 878.135 546.282 937.625 546.282 998.668C546.282 1059.71 558.269 1119.2 581.798 1174.92C604.662 1228.63 637.292 1277.25 678.801 1318.76C720.311 1360.27 768.702 1392.9 822.642 1415.76C878.358 1439.29 937.847 1451.28 998.89 1451.28C1059.93 1451.28 1119.42 1439.29 1175.14 1415.76C1228.86 1392.9 1277.47 1360.27 1318.98 1318.76C1360.49 1277.25 1393.12 1228.86 1415.98 1174.92C1439.51 1119.2 1451.5 1059.71 1451.5 998.668C1451.5 937.625 1439.51 878.135 1415.98 822.419C1393.12 768.701 1360.49 720.089 1318.98 678.579C1277.47 637.07 1229.08 604.439 1175.14 581.576Z" fill="#E3EAF0"/>
</svg>
